<svg width="235" height="30" viewBox="0 0 235 30" fill="none" xmlns="http://www.w3.org/2000/svg">
<g clip-path="url(#clip0_1_1928)">
<path d="M26.4483 15.5382C26.4483 8.56717 20.7334 2.91602 13.6837 2.91602C6.63403 2.91602 0.919128 8.56717 0.919128 15.5382C0.919128 21.8382 5.58693 27.0602 11.6893 28.0071V19.1868H8.44825V15.5382H11.6893V12.7574C11.6893 9.59395 13.595 7.84657 16.5106 7.84657C17.9068 7.84657 19.368 8.09309 19.368 8.09309V11.1993H17.7584C16.1728 11.1993 15.6782 12.1724 15.6782 13.1716V15.5382H19.2184L18.6524 19.1868H15.6782V28.0071C21.7805 27.0602 26.4483 21.8382 26.4483 15.5382Z" fill="white"/>
</g>
<path fill-rule="evenodd" clip-rule="evenodd" d="M104.989 2.9165C102.054 2.9165 99.6746 5.29594 99.6746 8.23112V22.4564C99.6746 25.3916 102.054 27.7711 104.989 27.7711H120.419C123.354 27.7711 125.734 25.3916 125.734 22.4564V8.23112C125.734 5.29594 123.354 2.9165 120.419 2.9165H104.989ZM120.638 11.6772C120.638 16.7033 116.849 22.4991 109.922 22.4991V22.4962C107.875 22.4989 105.871 21.9068 104.149 20.7906C105.135 20.9107 106.135 20.8333 107.091 20.5628C108.048 20.2923 108.942 19.834 109.723 19.2141C108.937 19.1991 108.175 18.9364 107.545 18.4629C106.914 17.9893 106.445 17.3285 106.204 16.5728C106.769 16.6826 107.35 16.6603 107.905 16.5075C107.053 16.3336 106.286 15.8674 105.735 15.1878C105.185 14.5083 104.884 13.6572 104.883 12.7791V12.7309C105.407 13.0259 105.993 13.1892 106.593 13.207C105.795 12.6692 105.231 11.8448 105.014 10.9015C104.798 9.9582 104.945 8.96699 105.427 8.12968C106.372 9.30456 107.552 10.2655 108.889 10.9501C110.227 11.6347 111.691 12.0277 113.189 12.1036C113.001 11.2882 113.085 10.4331 113.428 9.67076C113.77 8.90839 114.351 8.28119 115.082 7.88622C115.813 7.49124 116.652 7.35052 117.47 7.48581C118.288 7.62111 119.039 8.02489 119.607 8.63466C120.45 8.46675 121.259 8.15452 121.999 7.71145C121.718 8.59226 121.129 9.3399 120.343 9.81518C121.089 9.72622 121.819 9.5245 122.506 9.21676C122 9.98045 121.364 10.6471 120.627 11.1855C120.638 11.3487 120.638 11.5126 120.638 11.6772Z" fill="white"/>
<g clip-path="url(#clip1_1_1928)">
<path d="M63.0615 5.189C66.472 5.189 66.8759 5.20379 68.2172 5.26296C69.4637 5.31719 70.1369 5.52428 70.5856 5.69685C71.179 5.92365 71.6078 6.19976 72.0515 6.63858C72.5003 7.08233 72.7745 7.50143 73.0039 8.08816C73.1784 8.53191 73.3878 9.20246 73.4427 10.4302C73.5025 11.7614 73.5175 12.1608 73.5175 15.5284C73.5175 18.9009 73.5025 19.3002 73.4427 20.6265C73.3878 21.8592 73.1784 22.5248 73.0039 22.9686C72.7745 23.5553 72.4953 23.9793 72.0515 24.4181C71.6028 24.8619 71.179 25.1331 70.5856 25.3599C70.1369 25.5324 69.4587 25.7395 68.2172 25.7938C66.8709 25.8529 66.467 25.8677 63.0615 25.8677C59.6509 25.8677 59.2471 25.8529 57.9058 25.7938C56.6592 25.7395 55.9861 25.5324 55.5373 25.3599C54.944 25.1331 54.5152 24.857 54.0714 24.4181C53.6227 23.9744 53.3484 23.5553 53.119 22.9686C52.9445 22.5248 52.7351 21.8543 52.6803 20.6265C52.6204 19.2953 52.6055 18.8959 52.6055 15.5284C52.6055 12.1559 52.6204 11.7565 52.6803 10.4302C52.7351 9.19753 52.9445 8.53191 53.119 8.08816C53.3484 7.50143 53.6276 7.0774 54.0714 6.63858C54.5202 6.19483 54.944 5.92365 55.5373 5.69685C55.9861 5.52428 56.6642 5.31719 57.9058 5.26296C59.2471 5.20379 59.6509 5.189 63.0615 5.189ZM63.0615 2.91602C59.5961 2.91602 59.1623 2.93081 57.8011 2.98997C56.4448 3.04914 55.5124 3.26608 54.7047 3.57671C53.862 3.90213 53.149 4.33108 52.4409 5.03615C51.7279 5.73629 51.2941 6.44136 50.965 7.26969C50.6509 8.07337 50.4315 8.99045 50.3717 10.3316C50.3118 11.6825 50.2969 12.1115 50.2969 15.5382C50.2969 18.965 50.3118 19.3939 50.3717 20.7399C50.4315 22.0811 50.6509 23.0031 50.965 23.8018C51.2941 24.6351 51.7279 25.3401 52.4409 26.0403C53.149 26.7404 53.862 27.1743 54.6997 27.4948C55.5124 27.8054 56.4398 28.0224 57.7961 28.0815C59.1573 28.1407 59.5911 28.1555 63.0565 28.1555C66.5219 28.1555 66.9557 28.1407 68.3169 28.0815C69.6731 28.0224 70.6056 27.8054 71.4133 27.4948C72.251 27.1743 72.964 26.7404 73.672 26.0403C74.3801 25.3401 74.8189 24.6351 75.143 23.8068C75.4571 23.0031 75.6765 22.086 75.7363 20.7449C75.7962 19.3988 75.8111 18.9699 75.8111 15.5432C75.8111 12.1164 75.7962 11.6875 75.7363 10.3414C75.6765 9.00031 75.4571 8.0783 75.143 7.27955C74.8288 6.44136 74.395 5.73629 73.682 5.03615C72.974 4.33601 72.261 3.90213 71.4233 3.58164C70.6105 3.27102 69.6831 3.05407 68.3269 2.9949C66.9607 2.93081 66.5269 2.91602 63.0615 2.91602Z" fill="white"/>
<path d="M63.0615 9.05469C59.4416 9.05469 56.5047 11.9588 56.5047 15.5384C56.5047 19.1179 59.4416 22.022 63.0615 22.022C66.6815 22.022 69.6183 19.1179 69.6183 15.5384C69.6183 11.9588 66.6815 9.05469 63.0615 9.05469ZM63.0615 19.7441C60.713 19.7441 58.8083 17.8606 58.8083 15.5384C58.8083 13.2161 60.713 11.3326 63.0615 11.3326C65.41 11.3326 67.3147 13.2161 67.3147 15.5384C67.3147 17.8606 65.41 19.7441 63.0615 19.7441Z" fill="white"/>
<path d="M71.4083 8.79786C71.4083 9.63606 70.7202 10.3115 69.8776 10.3115C69.0299 10.3115 68.3468 9.63113 68.3468 8.79786C68.3468 7.95967 69.0349 7.28418 69.8776 7.28418C70.7202 7.28418 71.4083 7.9646 71.4083 8.79786Z" fill="white"/>
</g>
<g clip-path="url(#clip2_1_1928)">
<path d="M172.692 2.91602H150.937C149.895 2.91602 149.052 3.72956 149.052 4.73539V26.3361C149.052 27.342 149.895 28.1604 150.937 28.1604H172.692C173.734 28.1604 174.581 27.342 174.581 26.3411V4.73539C174.581 3.72956 173.734 2.91602 172.692 2.91602ZM156.626 24.428H152.837V12.3777H156.626V24.428ZM154.731 10.7359C153.515 10.7359 152.533 9.76455 152.533 8.56643C152.533 7.3683 153.515 6.39698 154.731 6.39698C155.943 6.39698 156.925 7.3683 156.925 8.56643C156.925 9.75962 155.943 10.7359 154.731 10.7359ZM170.807 24.428H167.022V18.5705C167.022 17.1752 166.997 15.3755 165.053 15.3755C163.083 15.3755 162.784 16.8991 162.784 18.4719V24.428H159.005V12.3777H162.635V14.0245H162.684C163.188 13.0779 164.425 12.077 166.265 12.077C170.099 12.077 170.807 14.5718 170.807 17.8161V24.428V24.428Z" fill="white"/>
</g>
<path d="M216.699 4.76855C211.601 4.76855 204.984 5.77703 204.984 5.77703L204.967 5.79205C202.645 6.08523 200.866 7.66047 200.866 9.57619V15.3453V15.3472V21.1145V21.1164C200.868 22.0313 201.283 22.9156 202.037 23.6106C202.791 24.3055 203.834 24.7655 204.979 24.908L204.984 24.9137C204.984 24.9137 211.601 25.924 216.699 25.924C221.797 25.924 228.414 24.9137 228.414 24.9137L228.417 24.9118C229.563 24.7696 230.607 24.3092 231.361 23.6134C232.116 22.9177 232.531 22.0322 232.532 21.1164V21.1145V15.3472V15.3453V9.57619C232.53 8.66094 232.115 7.77616 231.361 7.08084C230.608 6.38552 229.564 5.92522 228.419 5.78266L228.414 5.77703C228.414 5.77703 221.797 4.76855 216.699 4.76855ZM213.045 10.9208L222.789 15.3453L213.045 19.7699V10.9208Z" fill="white"/>
<defs>
<clipPath id="clip0_1_1928">
<rect width="25.5292" height="25.2444" fill="white" transform="translate(0.919128 2.91602)"/>
</clipPath>
<clipPath id="clip1_1_1928">
<rect width="25.5292" height="25.2444" fill="white" transform="translate(50.2969 2.91602)"/>
</clipPath>
<clipPath id="clip2_1_1928">
<rect width="25.5292" height="25.2444" fill="white" transform="translate(149.052 2.91602)"/>
</clipPath>
</defs>
</svg>
