<svg width="1776" height="380" viewBox="0 0 1776 380" fill="none" xmlns="http://www.w3.org/2000/svg">
<rect x="623" width="530" height="380" rx="10" fill="#C4C4C4"/>
<rect x="1289" y="68" width="406" height="243" rx="10" fill="#C4C4C4"/>
<rect x="81" y="68" width="406" height="243" rx="10" fill="#C4C4C4"/>
<path d="M24.0847 204.303C25.3051 203.297 25.3051 201.667 24.0847 200.661L7.54442 187.029L24.0847 173.397C25.3051 172.391 25.3051 170.76 24.0847 169.754C22.8643 168.748 20.8857 168.748 19.6653 169.754L0.915295 185.208C-0.305094 186.213 -0.305094 187.844 0.915295 188.85L19.6653 204.303C20.8857 205.309 22.8643 205.309 24.0847 204.303Z" fill="#FFFCFC"/>
<path d="M1751.92 204.303C1750.69 203.297 1750.69 201.667 1751.92 200.661L1768.46 187.029L1751.92 173.397C1750.69 172.391 1750.69 170.76 1751.92 169.754C1753.14 168.748 1755.11 168.748 1756.33 169.754L1775.08 185.208C1776.31 186.213 1776.31 187.844 1775.08 188.85L1756.33 204.303C1755.11 205.309 1753.14 205.309 1751.92 204.303Z" fill="#FFFCFC"/>
</svg>
